<?xml version="1.0" encoding="utf-8"?>
<!-- Generator: Adobe Illustrator 22.1.0, SVG Export Plug-In . SVG Version: 6.00 Build 0)  -->
<svg version="1.1" id="Capa_1" xmlns="http://www.w3.org/2000/svg" xmlns:xlink="http://www.w3.org/1999/xlink" x="0px" y="0px"
	 viewBox="0 0 329 329" style="enable-background:new 0 0 329 329;" xml:space="preserve">
<style type="text/css">
	.st0{fill:#FFD9C0;}
	.st1{fill:#D83300;}
</style>
<circle class="st0" cx="164.5" cy="164.5" r="164.5"/>
<g>
	<path class="st1" d="M154.4,191.4c-2.8,0-5.2-2.1-5.4-4.9l-2.8-26.9c-0.2-1.5,0.3-2.9,1.2-4c0.9-1.1,2.2-1.8,3.7-2
		c0.2,0,0.4,0,0.6,0c2.8,0,5.2,2.1,5.5,4.9l2.8,26.9c0.2,1.5-0.3,2.9-1.2,4c-0.9,1.1-2.2,1.8-3.7,2
		C154.8,191.4,154.6,191.4,154.4,191.4z"/>
	<path class="st1" d="M186.8,191.4c-0.2,0-0.4,0-0.6,0c-3-0.3-5.2-3-4.9-6l2.8-26.9c0.3-2.8,2.6-4.9,5.5-4.9c0.2,0,0.4,0,0.6,0
		c1.5,0.1,2.8,0.9,3.7,2c0.9,1.1,1.3,2.6,1.2,4l-2.8,26.9C191.9,189.3,189.6,191.4,186.8,191.4z"/>
	<path class="st1" d="M139.5,258c-10,0-18.1-8.1-18.1-18.1c0-10,8.1-18.1,18.1-18.1c10,0,18.1,8.1,18.1,18.1
		C157.6,249.9,149.5,258,139.5,258z M139.5,232.8c-3.9,0-7.1,3.2-7.1,7.1c0,3.9,3.2,7.1,7.1,7.1c3.9,0,7.1-3.2,7.1-7.1
		C146.6,236,143.4,232.8,139.5,232.8z"/>
	<path class="st1" d="M201.7,258c-10,0-18.1-8.1-18.1-18.1c0-10,8.1-18.1,18.1-18.1c10,0,18.1,8.1,18.1,18.1
		C219.8,249.9,211.7,258,201.7,258z M201.7,232.8c-3.9,0-7.1,3.2-7.1,7.1c0,3.9,3.2,7.1,7.1,7.1c3.9,0,7.1-3.2,7.1-7.1
		C208.8,236,205.6,232.8,201.7,232.8z"/>
	<path class="st1" d="M126.9,213.8c-2.5,0-4.7-1.7-5.3-4.1l-23.8-91.5H77.3c-3,0-5.5-2.5-5.5-5.5s2.5-5.5,5.5-5.5H102
		c2.5,0,4.7,1.7,5.3,4.1l5.1,19.8H233c1.7,0,3.3,0.8,4.3,2.1c1,1.3,1.4,3.1,1,4.7l-18.6,71.7c-0.6,2.4-2.8,4.1-5.3,4.1H126.9z
		 M210.1,202.8l15.8-60.7H115.3l15.8,60.7H210.1z"/>
	<path class="st1" d="M151.2,113.1c-1.5,0-2.8-0.6-3.9-1.6l-18.9-18.9c-2.1-2.1-2.1-5.6,0-7.8c1-1,2.4-1.6,3.9-1.6s2.8,0.6,3.9,1.6
		l18.9,18.9c2.1,2.1,2.1,5.6,0,7.8C154,112.5,152.7,113.1,151.2,113.1z"/>
	<path class="st1" d="M190,113.1c-1.5,0-2.8-0.6-3.9-1.6c-2.1-2.1-2.1-5.6,0-7.8l18.9-18.9c1-1,2.4-1.6,3.9-1.6
		c1.5,0,2.8,0.6,3.9,1.6c1,1,1.6,2.4,1.6,3.9c0,1.5-0.6,2.8-1.6,3.9l-18.9,18.9C192.9,112.5,191.5,113.1,190,113.1z"/>
	<path class="st1" d="M170.6,107.7c-1.5,0-2.8-0.6-3.9-1.6c-1-1-1.6-2.4-1.6-3.9l0-26.8c0-3,2.5-5.5,5.5-5.5c1.5,0,2.8,0.6,3.9,1.6
		c1,1,1.6,2.4,1.6,3.9l0,26.8C176.1,105.2,173.6,107.7,170.6,107.7L170.6,107.7z"/>
</g>
</svg>
