<?xml version="1.0" encoding="utf-8"?>
<!-- Generator: Adobe Illustrator 22.1.0, SVG Export Plug-In . SVG Version: 6.00 Build 0)  -->
<svg version="1.1" baseProfile="tiny"
	 id="svg2" inkscape:version="0.48.2 r9819" sodipodi:docname="mandalas.svg" xmlns:cc="http://creativecommons.org/ns#" xmlns:dc="http://purl.org/dc/elements/1.1/" xmlns:inkscape="http://www.inkscape.org/namespaces/inkscape" xmlns:rdf="http://www.w3.org/1999/02/22-rdf-syntax-ns#" xmlns:sodipodi="http://sodipodi.sourceforge.net/DTD/sodipodi-0.dtd" xmlns:svg="http://www.w3.org/2000/svg"
	 xmlns="http://www.w3.org/2000/svg" xmlns:xlink="http://www.w3.org/1999/xlink" x="0px" y="0px" viewBox="0 0 732.5 732.4"
	 xml:space="preserve">
<sodipodi:namedview  bordercolor="#666666" borderopacity="1" fit-margin-bottom="0" fit-margin-left="0" fit-margin-right="0" fit-margin-top="0" gridtolerance="10" guidetolerance="10" id="namedview132" inkscape:current-layer="svg2" inkscape:cx="380.50267" inkscape:cy="350.02408" inkscape:pageopacity="0" inkscape:pageshadow="2" inkscape:snap-global="false" inkscape:window-height="1018" inkscape:window-maximized="1" inkscape:window-width="1920" inkscape:window-x="-8" inkscape:window-y="-8" inkscape:zoom="0.86145028" objecttolerance="10" pagecolor="#ffffff" showgrid="false">
	</sodipodi:namedview>
<g id="g3172" transform="translate(-84.250139,-4435)">
	
		<circle id="circle12" sodipodi:cx="10421" sodipodi:cy="14771" sodipodi:rx="10335" sodipodi:ry="10335" fill="#D7DF36" cx="450.5" cy="4801.2" r="366.2">
	</circle>
	<path id="path14" inkscape:connector-curvature="0" fill="#A8CF45" d="M301.6,4466.7c22.6-10.2,46.9-18.1,72.8-23.7l76.1,358.2
		L301.6,4466.7L301.6,4466.7z"/>
	<path id="path16" inkscape:connector-curvature="0" fill="#76C04E" d="M235.3,4504.9c20-14.7,42.1-27.4,66.3-38.3l149,334.6
		L235.3,4504.9L235.3,4504.9z"/>
	<path id="path18" inkscape:connector-curvature="0" fill="#21B354" d="M178.4,4556.2c16.5-18.5,35.5-35.6,56.9-51.2l215.3,296.3
		L178.4,4556.2L178.4,4556.2z"/>
	<path id="path20" inkscape:connector-curvature="0" fill="#00A859" d="M133.4,4618.1c12.3-21.5,27.3-42.2,45-61.9l272.2,245.1
		L133.4,4618.1z"/>
	<path id="path22" inkscape:connector-curvature="0" fill="#00AA91" d="M86.3,4762.9c2.5-24.7,7.8-49.6,15.9-74.9l348.3,113.2
		L86.3,4762.9L86.3,4762.9z"/>
	<path id="path24" inkscape:connector-curvature="0" fill="#00A972" d="M102.2,4688.1c7.5-23.6,17.9-46.9,31.1-69.9l317.2,183.1
		L102.2,4688.1L102.2,4688.1z"/>
	<path id="path26" inkscape:connector-curvature="0" fill="#FFF212" d="M526.6,4443c-24.2-5.3-49.6-7.9-76.1-8v366.2L526.6,4443z"/>
	<path id="path28" inkscape:connector-curvature="0" fill="#FFCC29" d="M599.4,4466.7c-22.6-10.2-46.9-18.1-72.8-23.7l-76.1,358.2
		L599.4,4466.7L599.4,4466.7z"/>
	<path id="path30" inkscape:connector-curvature="0" fill="#FAA831" d="M665.8,4504.9c-20-14.7-42.1-27.4-66.3-38.3l-149,334.6
		L665.8,4504.9L665.8,4504.9z"/>
	<path id="path32" inkscape:connector-curvature="0" fill="#F58634" d="M722.6,4556.2c-16.5-18.5-35.5-35.6-56.9-51.2l-215.3,296.3
		L722.6,4556.2L722.6,4556.2z"/>
	<path id="path34" inkscape:connector-curvature="0" fill="#F16136" d="M767.6,4618.1c-12.3-21.5-27.3-42.2-45-61.9l-272.2,245.1
		L767.6,4618.1z"/>
	<path id="path36" inkscape:connector-curvature="0" fill="#EE3147" d="M814.7,4762.9c-2.5-24.7-7.8-49.6-15.9-74.9l-348.3,113.2
		L814.7,4762.9L814.7,4762.9z"/>
	<path id="path38" inkscape:connector-curvature="0" fill="#ED3237" d="M798.8,4688.1c-7.5-23.6-17.9-46.9-31.1-69.9l-317.2,183.1
		L798.8,4688.1L798.8,4688.1z"/>
	<path id="path40" inkscape:connector-curvature="0" fill="#3E4095" d="M374.4,5159.4c24.2,5.3,49.6,7.9,76.1,8v-366.2L374.4,5159.4
		z"/>
	<path id="path42" inkscape:connector-curvature="0" fill="#2957A4" d="M301.6,5135.8c22.6,10.2,46.9,18.1,72.8,23.7l76.1-358.2
		L301.6,5135.8L301.6,5135.8z"/>
	<path id="path44" inkscape:connector-curvature="0" fill="#006CB5" d="M235.3,5097.5c20,14.7,42.1,27.4,66.3,38.3l149-334.6
		L235.3,5097.5L235.3,5097.5z"/>
	<path id="path46" inkscape:connector-curvature="0" fill="#0082C6" d="M178.4,5046.3c16.5,18.5,35.5,35.6,56.9,51.2l215.3-296.3
		L178.4,5046.3L178.4,5046.3z"/>
	<path id="path48" inkscape:connector-curvature="0" fill="#0098DA" d="M133.4,4984.3c12.3,21.5,27.3,42.2,45,61.9l272.2-245.1
		L133.4,4984.3z"/>
	<path id="path50" inkscape:connector-curvature="0" fill="#00AECD" d="M86.3,4839.5c2.5,24.7,7.8,49.6,15.9,74.9l348.3-113.2
		L86.3,4839.5L86.3,4839.5z"/>
	<path id="path52" inkscape:connector-curvature="0" fill="#00AFEF" d="M102.2,4914.4c7.5,23.6,17.9,46.9,31.1,69.9l317.2-183.1
		L102.2,4914.4L102.2,4914.4z"/>
	<path id="path54" inkscape:connector-curvature="0" fill="#633D94" d="M526.6,5159.4c-24.2,5.3-49.6,7.9-76.1,8v-366.2
		L526.6,5159.4z"/>
	<path id="path56" inkscape:connector-curvature="0" fill="#853A93" d="M599.4,5135.8c-22.6,10.2-46.9,18.1-72.8,23.7l-76.1-358.2
		L599.4,5135.8L599.4,5135.8z"/>
	<path id="path58" inkscape:connector-curvature="0" fill="#A53692" d="M665.8,5097.5c-20,14.7-42.1,27.4-66.3,38.3l-149-334.6
		L665.8,5097.5L665.8,5097.5z"/>
	<path id="path60" inkscape:connector-curvature="0" fill="#C72F90" d="M722.6,5046.3c-16.5,18.5-35.5,35.6-56.9,51.2l-215.3-296.3
		L722.6,5046.3L722.6,5046.3z"/>
	<path id="path62" inkscape:connector-curvature="0" fill="#EC268F" d="M767.6,4984.3c-12.3,21.5-27.3,42.2-45,61.9l-272.2-245.1
		L767.6,4984.3z"/>
	<path id="path64" inkscape:connector-curvature="0" fill="#ED2D6A" d="M814.7,4839.5c-2.5,24.7-7.8,49.6-15.9,74.9l-348.3-113.2
		L814.7,4839.5L814.7,4839.5z"/>
	<path id="path66" inkscape:connector-curvature="0" fill="#ED297C" d="M798.8,4914.4c-7.5,23.6-17.9,46.9-31.1,69.9l-317.2-183.1
		L798.8,4914.4L798.8,4914.4z"/>
	<path id="path68" inkscape:connector-curvature="0" fill="#00ACAE" d="M86.3,4839.5c-2.7-24.7-2.7-50.2,0-76.6l364.2,38.3
		L86.3,4839.5L86.3,4839.5z"/>
	<path id="path70" inkscape:connector-curvature="0" fill="#ED2F59" d="M814.7,4839.5c2.7-24.7,2.7-50.2,0-76.6l-364.2,38.3
		L814.7,4839.5L814.7,4839.5z"/>
</g>
</svg>
